<svg width="14" height="14" viewBox="0 0 14 14" fill="none" xmlns="http://www.w3.org/2000/svg">
<path fill-rule="evenodd" clip-rule="evenodd" d="M7.00603 14C10.8648 14 14 10.8621 14 7C14 3.13793 10.8648 0 7.00603 0C3.14729 0 0 3.13793 0 7C0 10.8621 3.14729 14 7.00603 14ZM7.00603 0.965517C10.3221 0.965517 13.0233 3.66897 13.0233 6.98793C13.0233 10.3069 10.3221 13.0103 7.00603 13.0103C3.68992 13.0103 0.988803 10.3069 0.988803 6.98793C0.988803 3.66897 3.68992 0.965517 7.00603 0.965517Z" fill="#AAAAAA"/>
<path d="M7.10821 10.7037C6.92366 10.7037 6.76987 10.6524 6.64684 10.5497C6.53064 10.4403 6.47254 10.2864 6.47254 10.088V6.12702C6.47254 5.92863 6.53064 5.77813 6.64684 5.67552C6.76987 5.5729 6.92366 5.52159 7.10821 5.52159C7.29276 5.52159 7.44655 5.5729 7.56958 5.67552C7.69261 5.77813 7.75413 5.92863 7.75413 6.12702V10.088C7.75413 10.2864 7.69261 10.4403 7.56958 10.5497C7.44655 10.6524 7.29276 10.7037 7.10821 10.7037ZM7.10821 4.60832C6.87581 4.60832 6.69127 4.54675 6.55456 4.42361C6.41786 4.29363 6.34951 4.12603 6.34951 3.92079C6.34951 3.71556 6.41786 3.55138 6.55456 3.42824C6.69127 3.3051 6.87581 3.24353 7.10821 3.24353C7.33377 3.24353 7.5149 3.3051 7.6516 3.42824C7.79514 3.55138 7.86691 3.71556 7.86691 3.92079C7.86691 4.12603 7.79856 4.29363 7.66185 4.42361C7.52515 4.54675 7.3406 4.60832 7.10821 4.60832Z" fill="#AAAAAA"/>
</svg>
