<?xml version="1.0" encoding="utf-8"?>
<!-- Generator: Adobe Illustrator 19.2.0, SVG Export Plug-In . SVG Version: 6.00 Build 0)  -->
<svg version="1.1" id="Layer_1" xmlns="http://www.w3.org/2000/svg" xmlns:xlink="http://www.w3.org/1999/xlink" x="0px" y="0px"
	 viewBox="0 0 125.8 52.9" style="enable-background:new 0 0 125.8 52.9;" xml:space="preserve">
<style type="text/css">
	.st0{fill:#FFFFFF;}
	.st1{fill:#FCFAFA;}
</style>
<g>
	<g>
		<path class="st0" d="M25.8,26.8c0-7.8,6.1-13.7,13.7-13.7c7.6,0,13.7,6,13.7,13.7c0,7.8-6.1,13.7-13.7,13.7
			C31.9,40.5,25.8,34.6,25.8,26.8z M47.2,26.8c0-4.7-3.4-7.8-7.7-7.8c-4.3,0-7.7,3.1-7.7,7.8c0,4.7,3.4,7.8,7.7,7.8
			C43.8,34.6,47.2,31.5,47.2,26.8z"/>
	</g>
	<g>
		<path class="st0" d="M77.3,13.6V40h-4.5L62.6,25.7V40h-6V13.6h4.5l10.2,14.3V13.6H77.3z"/>
	</g>
	<g>
		<path class="st0" d="M105.2,26.8c0,7.5-5.5,13.2-12.8,13.2H81.8V13.6h10.6C99.7,13.6,105.2,19.3,105.2,26.8z M99.4,26.8
			c0-4.5-2.9-7.4-7-7.4h-4.5v14.8h4.5C96.5,34.2,99.4,31.3,99.4,26.8z"/>
	</g>
	<g>
		<path class="st0" d="M125.2,34.2V40h-16.6V13.6H125v5.8h-10.4v4.4h9.4v5.7h-9.4v4.7C114.6,34.2,125.2,34.2,125.2,34.2z"/>
	</g>
	<g>
		<g>
			<g>
				<path class="st0" d="M23.1,31.6c0,4.9-4,8.1-9,8.1H2.5V12h10.9c4.8,0,8.8,3.1,8.8,7.9c0,2.3-0.9,4.1-2.4,5.4
					C21.8,26.7,23.1,28.8,23.1,31.6z M8.8,17.9v4.9h4.5c1.4,0,2.4-1,2.4-2.5c0-1.4-1-2.5-2.4-2.5H8.8z M16.8,31.1
					c0-1.5-1-2.7-2.6-2.7H8.8v5.3h5.3C15.7,33.8,16.8,32.7,16.8,31.1z"/>
			</g>
			<g>
				<path class="st0" d="M22.6,31.3c0,4.9-4,8.1-9,8.1H2V11.7h10.9c4.8,0,8.8,3.1,8.8,7.9c0,2.3-0.9,4.1-2.4,5.4
					C21.3,26.4,22.6,28.5,22.6,31.3z M8.3,17.6v4.9h4.5c1.4,0,2.4-1,2.4-2.5s-1-2.5-2.4-2.5L8.3,17.6L8.3,17.6z M16.3,30.8
					c0-1.5-1-2.7-2.6-2.7H8.3v5.3h5.3C15.2,33.5,16.3,32.4,16.3,30.8z"/>
			</g>
			<g>
				<path class="st0" d="M22.1,31c0,4.9-4,8.1-9,8.1H1.5V11.4h10.9c4.8,0,8.8,3.1,8.8,7.9c0,2.3-0.9,4.1-2.4,5.4
					C20.8,26,22.1,28.2,22.1,31z M7.8,17.3v4.9h4.5c1.4,0,2.4-1,2.4-2.5c0-1.4-1-2.5-2.4-2.5H7.8z M15.8,30.5c0-1.5-1-2.7-2.6-2.7
					H7.8v5.3h5.3C14.7,33.2,15.8,32.1,15.8,30.5z"/>
			</g>
			<g>
				<path class="st0" d="M23.6,31.9c0,4.9-4,8.1-9,8.1H3V12.3h10.9c4.8,0,8.8,3.1,8.8,7.9c0,2.3-0.9,4.1-2.4,5.4
					C22.3,27,23.6,29.1,23.6,31.9z M9.3,18.2v4.9h4.5c1.4,0,2.4-1,2.4-2.5c0-1.4-1-2.5-2.4-2.5C13.8,18.2,9.3,18.2,9.3,18.2z
					 M17.3,31.4c0-1.5-1-2.7-2.6-2.7H9.3v5.3h5.3C16.2,34.1,17.3,33,17.3,31.4z"/>
			</g>
			<g>
				<path class="st0" d="M21.6,30.7c0,4.9-4,8.1-9,8.1H1V11.1h10.9c4.8,0,8.8,3.1,8.8,7.9c0,2.3-0.9,4.1-2.4,5.4
					C20.3,25.7,21.6,27.9,21.6,30.7z M7.3,17v4.9h4.5c1.4,0,2.4-1,2.4-2.5c0-1.4-1-2.5-2.4-2.5H7.3z M15.3,30.2c0-1.5-1-2.7-2.6-2.7
					H7.3v5.3h5.3C14.2,32.9,15.3,31.8,15.3,30.2z"/>
			</g>
			<g>
				<path class="st0" d="M21.1,30.4c0,4.9-4,8.1-9,8.1H0.5V10.8h10.9c4.8,0,8.8,3.1,8.8,7.9c0,2.3-0.9,4.1-2.4,5.4
					C19.8,25.4,21.1,27.6,21.1,30.4z M6.8,16.7v4.9h4.5c1.4,0,2.4-1,2.4-2.5c0-1.4-1-2.5-2.4-2.5L6.8,16.7L6.8,16.7z M14.8,29.9
					c0-1.5-1-2.7-2.6-2.7H6.8v5.3h5.3C13.8,32.6,14.8,31.5,14.8,29.9z"/>
			</g>
			<g>
				<path class="st0" d="M20.6,30.1c0,4.9-4,8.1-9,8.1H0V10.4h10.9c4.8,0,8.8,3.1,8.8,7.9c0,2.3-0.9,4.1-2.4,5.4
					C19.3,25.1,20.6,27.3,20.6,30.1z M6.4,16.4v4.9h4.5c1.4,0,2.4-1,2.4-2.5c0-1.4-1-2.5-2.4-2.5C10.9,16.4,6.4,16.4,6.4,16.4z
					 M14.3,29.6c0-1.5-1-2.7-2.6-2.7H6.4v5.3h5.3C13.3,32.3,14.3,31.2,14.3,29.6z"/>
			</g>
		</g>
		<g>
			<polygon class="st0" points="0,38.2 3.2,40.5 3.5,39.5 0.3,37.4 0,37.3 			"/>
		</g>
		<g>
			<polygon points="0,28.8 3.5,31.1 3.5,30 0.3,28 0,27.8 			"/>
		</g>
		<g>
			<polygon points="0,27 3.5,29.1 3.5,25.5 0.3,23.5 0,23.3 			"/>
		</g>
		<g>
			<polygon points="3.7,12.5 0,10.4 1.5,10.4 5.5,12.5 			"/>
		</g>
		<g>
			<path d="M24.1,32.1c0,4.9-4,8.1-9,8.1H3.5V12.5h10.9c4.8,0,8.8,3.1,8.8,7.9c0,2.3-0.9,4.1-2.4,5.4C22.7,27.1,24.1,29.3,24.1,32.1
				z M9.8,18.4v4.9h4.5c1.4,0,2.4-1,2.4-2.5s-1-2.5-2.4-2.5L9.8,18.4L9.8,18.4z M17.7,31.6c0-1.5-1-2.7-2.6-2.7H9.8v5.3h5.3
				C16.7,34.3,17.7,33.2,17.7,31.6z"/>
			<path class="st1" d="M15.1,40.5H3.2V12.2h11.1c5.2,0,9,3.5,9,8.2c0,2.1-0.8,4-2.3,5.4c2.1,1.5,3.2,3.7,3.2,6.3
				C24.4,37,20.5,40.5,15.1,40.5z M3.7,40h11.4c5,0,8.7-3.3,8.7-7.9c0-2.6-1.2-4.7-3.3-6l-0.3-0.2l0.3-0.2c1.5-1.3,2.3-3.1,2.3-5.2
				c0-4.4-3.6-7.7-8.5-7.7H3.7L3.7,40L3.7,40z M15.1,34.6H9.5v-5.9h5.6c1.7,0,2.9,1.2,2.9,2.9C18,33.4,16.8,34.6,15.1,34.6z
				 M10.1,34h5c1.4,0,2.3-1,2.3-2.4c0-1.4-0.9-2.4-2.3-2.4h-5V34z M14.3,23.6H9.5v-5.5h4.8c1.6,0,2.7,1.1,2.7,2.7
				C17,22.5,15.9,23.6,14.3,23.6z M10.1,23.1h4.3c1.3,0,2.1-0.9,2.1-2.2c0-1.3-0.9-2.2-2.1-2.2h-4.3V23.1z"/>
		</g>
	</g>
</g>
</svg>
