<?xml version="1.0" encoding="UTF-8" standalone="no"?>
<svg width="77px" height="88px" viewBox="0 0 77 88" version="1.1" xmlns="http://www.w3.org/2000/svg" xmlns:xlink="http://www.w3.org/1999/xlink">
    <!-- Generator: sketchtool 3.7.2 (28276) - http://www.bohemiancoding.com/sketch -->
    <title>D873A110-8C3B-4245-B7A2-A443BD58DB43</title>
    <desc>Created with sketchtool.</desc>
    <defs></defs>
    <g id="Page-1" stroke="none" stroke-width="1" fill="none" fill-rule="evenodd">
        <g id="06" transform="translate(-1523.000000, -793.000000)">
            <g id="Group-2" transform="translate(1521.000000, 793.000000)">
                <path d="M30.8607595,5.91978694 C30.8607595,-0.175905831 39.3432939,-2.43503234 41.9533572,4.62153393 C44.5634149,-2.43503234 53.0459466,-0.175905831 53.0459466,5.91978694 C53.0459466,12.542684 41.9533572,20.939759 41.9533572,20.939759 C41.9533572,20.939759 30.8607595,12.542684 30.8607595,5.91978694" id="Page-1" fill="#DD2E44"></path>
                <path d="M55.1855554,18.9015454 C55.1855554,12.8058526 63.6680898,10.5467261 66.2781531,17.6032924 C68.8882108,10.5467261 77.3707425,12.8058526 77.3707425,18.9015454 C77.3707425,25.5244425 66.2781531,33.9215175 66.2781531,33.9215175 C66.2781531,33.9215175 55.1855554,25.5244425 55.1855554,18.9015454" id="Page-1" fill="#DD2E44" transform="translate(66.278149, 23.576630) rotate(-330.000000) translate(-66.278149, -23.576630) "></path>
                <path d="M3.84219314,20.3405974 C3.84219314,14.2449046 12.3247276,11.9857781 14.9347909,19.0423444 C17.5448486,11.9857781 26.0273802,14.2449046 26.0273802,20.3405974 C26.0273802,26.9634945 14.9347909,35.3605695 14.9347909,35.3605695 C14.9347909,35.3605695 3.84219314,26.9634945 3.84219314,20.3405974" id="Page-1" fill="#DD2E44" transform="translate(14.934787, 25.015682) rotate(-30.000000) translate(-14.934787, -25.015682) "></path>
                <path d="M62.3291139,45.8795181 L20,45.8795181 C17.0766456,45.8795181 14.7353165,48.2356325 14.7353165,51.1445783 L14.7088608,82.7349398 C14.7088608,85.6438842 17.0766456,88 20,88 L62.3291139,88 C65.2524684,88 67.6202532,85.6438842 67.6202532,82.7349398 L67.6202532,51.1445783 C67.6202532,48.2356325 65.2524684,45.8795181 62.3291139,45.8795181 L62.3291139,45.8795181 Z M62.3291139,82.7349398 L20,82.7349398 L20,66.939759 L62.3291139,66.939759 L62.3291139,82.7349398 L62.3291139,82.7349398 Z M62.3291139,56.4096386 L20,56.4096386 L20,51.1445783 L62.3291139,51.1445783 L62.3291139,56.4096386 L62.3291139,56.4096386 Z" id="Page-1" fill="#000000"></path>
            </g>
        </g>
    </g>
</svg>