<?xml version="1.0" encoding="UTF-8" standalone="no"?>
<svg width="54px" height="79px" viewBox="0 0 54 79" version="1.1" xmlns="http://www.w3.org/2000/svg" xmlns:xlink="http://www.w3.org/1999/xlink">
    <!-- Generator: sketchtool 3.7.2 (28276) - http://www.bohemiancoding.com/sketch -->
    <title>307C7533-1E17-422A-BFBF-2B43B700EB2B</title>
    <desc>Created with sketchtool.</desc>
    <defs></defs>
    <g id="Page-1" stroke="none" stroke-width="1" fill="none" fill-rule="evenodd">
        <g id="07" transform="translate(-1975.000000, -802.000000)">
            <g id="Group-3" transform="translate(1975.000000, 802.000000)">
                <path d="M16.0496933,6.66751403 C16.0496933,0.4456184 24.7067488,-1.86028018 27.370512,5.34238249 C30.0342694,-1.86028018 38.6913221,0.4456184 38.6913221,6.66751403 C38.6913221,13.427529 27.370512,21.9984538 27.370512,21.9984538 C27.370512,21.9984538 16.0496933,13.427529 16.0496933,6.66751403" id="Page-1" fill="#DD2E44"></path>
                <path d="M48.6,36.007472 L5.4,36.007472 C2.4165,36.007472 0.027,38.4123665 0.027,41.381538 L0,73.625934 C0,76.5951041 2.4165,79 5.4,79 L48.6,79 C51.5835,79 54,76.5951041 54,73.625934 L54,41.381538 C54,38.4123665 51.5835,36.007472 48.6,36.007472 L48.6,36.007472 Z M48.6,73.625934 L5.4,73.625934 L5.4,57.503736 L48.6,57.503736 L48.6,73.625934 L48.6,73.625934 Z M48.6,46.755604 L5.4,46.755604 L5.4,41.381538 L48.6,41.381538 L48.6,46.755604 L48.6,46.755604 Z" id="Page-1" fill="#000000"></path>
            </g>
        </g>
    </g>
</svg>