<?xml version="1.0" encoding="utf-8"?>
<!-- Generator: Adobe Illustrator 18.0.0, SVG Export Plug-In . SVG Version: 6.00 Build 0)  -->
<!DOCTYPE svg PUBLIC "-//W3C//DTD SVG 1.1//EN" "http://www.w3.org/Graphics/SVG/1.1/DTD/svg11.dtd">
<svg version="1.1" id="Layer_1" xmlns="http://www.w3.org/2000/svg" xmlns:xlink="http://www.w3.org/1999/xlink" x="0px" y="0px"
	 viewBox="26.9 65 125.8 52.9" enable-background="new 26.9 65 125.8 52.9" xml:space="preserve">
<g>
	<rect x="27" y="113.3" fill="#FFFFFF" width="60" height="4.6"/>
	<g>
		<path fill="#FFFFFF" d="M31.8,83.9v24.9h-4.9V74.5h6.8L39.3,95V74.5h4.8v34.4h-5.5L31.8,83.9z"/>
		<path fill="#FFFFFF" d="M48.1,82.9c0-5.4,2.8-8.5,8-8.5c5.2,0,8,3.1,8,8.5v17.5c0,5.4-2.8,8.5-8,8.5c-5.2,0-8-3.1-8-8.5V82.9z
			 M53.4,100.8c0,2.4,1.1,3.3,2.7,3.3c1.7,0,2.7-0.9,2.7-3.3V82.6c0-2.4-1.1-3.3-2.7-3.3c-1.7,0-2.7,0.9-2.7,3.3V100.8z"/>
		<path fill="#FFFFFF" d="M77.6,74.6c6.1,0,9.3,3.1,9.3,8.4v1.1h-6v-1.4c0-2.4-1.1-3.3-3.2-3.3c-2,0-3.2,0.9-3.2,3.3
			c0,6.9,12.3,8.2,12.3,17.7c0,5.4-3.2,8.4-9.4,8.4s-9.4-3.1-9.4-8.4v-2.1h6v2.4c0,2.4,1.3,3.2,3.3,3.2c2,0,3.3-0.9,3.3-3.2
			c0-6.9-12.3-8.2-12.3-17.7C68.3,77.7,71.4,74.6,77.6,74.6z"/>
		<g>
			<path fill="#FFFFFF" d="M130.8,108.8h-5.4l-0.9-6.2h-6.6l-0.9,6.2h-5l5.5-34.3h7.9L130.8,108.8z M118.5,97.9h5.2l-2.6-17.4
				L118.5,97.9z"/>
		</g>
		<path fill="#FFFFFF" d="M100.5,74.5c6.1,0,9.3,3.1,9.3,8.4V84h-6v-1.4c0-2.4-1.1-3.3-3.2-3.3c-2,0-3.2,0.9-3.2,3.3
			c0,6.9,12.3,8.2,12.3,17.7c0,5.4-3.2,8.4-9.4,8.4c-6.2,0-9.4-3.1-9.4-8.4v-2.1h6v2.4c0,2.4,1.3,3.2,3.3,3.2c2,0,3.3-0.9,3.3-3.2
			c0-6.9-12.3-8.2-12.3-17.7C91.2,77.6,94.3,74.5,100.5,74.5z"/>
		<path fill="#FFFFFF" d="M143.4,74.5c6.1,0,9.3,3.1,9.3,8.4V84h-6v-1.4c0-2.4-1.1-3.3-3.2-3.3c-2,0-3.2,0.9-3.2,3.3
			c0,6.9,12.3,8.2,12.3,17.7c0,5.3-3.2,8.4-9.4,8.4c-6.2,0-9.4-3.1-9.4-8.4v-2.1h6v2.4c0,2.4,1.3,3.2,3.3,3.2c2,0,3.3-0.9,3.3-3.2
			c0-6.9-12.3-8.2-12.3-17.7C134.1,77.6,137.2,74.5,143.4,74.5z"/>
	</g>
	<rect x="91.3" y="65" fill="#FFFFFF" width="60.6" height="4.6"/>
</g>
</svg>
