<?xml version="1.0" encoding="utf-8"?>
<!-- Generator: Adobe Illustrator 16.0.0, SVG Export Plug-In . SVG Version: 6.00 Build 0)  -->
<!DOCTYPE svg PUBLIC "-//W3C//DTD SVG 1.1//EN" "http://www.w3.org/Graphics/SVG/1.1/DTD/svg11.dtd">
<svg version="1.1" id="Layer_1" xmlns="http://www.w3.org/2000/svg" xmlns:xlink="http://www.w3.org/1999/xlink" x="0px" y="0px"
	 width="447px" height="211px" viewBox="68.14 64.321 447 211" enable-background="new 68.14 64.321 447 211" xml:space="preserve">
<g>
	<path fill="#FFFFFF" d="M154.322,241.569c-6.555,6.232-17.839,11.821-29.982,11.821c-21.6,0-37.827-13.97-37.827-37.505
		c0-23.75,16.229-37.721,37.827-37.721c18.914,0,29.445,10.532,29.875,27.618l-16.55,3.439c-0.106-8.812-4.189-14.4-13.54-14.4
		c-11.176,0-18.914,7.631-18.914,21.062c0,13.218,7.738,20.849,19.561,20.849c8.487,0,16.012-3.87,21.169-8.597L154.322,241.569z"/>
	<path fill="#FFFFFF" d="M169.288,172.147c5.803,0,9.672,2.149,9.672,8.167c0,6.019-3.869,8.167-9.672,8.167
		c-5.91,0-9.887-2.148-9.887-8.167C159.401,174.297,163.378,172.147,169.288,172.147z M178.208,233.079
		c0,2.795,0.537,5.158,3.438,5.158c2.257,0,4.942-1.182,5.267-1.504l0.751,14.293c-0.429,0.43-6.663,2.364-13.433,2.364
		c-8.92,0-14.078-4.515-14.078-15.905v-41.373h18.055V233.079L178.208,233.079z"/>
	<path fill="#FFFFFF" d="M247.66,176.016v57.062c0,2.901,0.645,5.158,3.438,5.158c1.506,0,3.332-0.646,5.373-1.504l0.646,14.293
		c-2.794,1.182-8.167,2.364-13.434,2.364c-6.342,0-10.746-2.151-12.788-7.63c-3.545,4.513-9.135,7.63-17.301,7.63
		c-15.262,0-25.899-12.252-25.899-29.229c0-16.979,10.639-29.017,25.899-29.017c6.77,0,12.25,2.364,16.012,5.803v-24.932
		L247.66,176.016L247.66,176.016z M218.859,237.7c4.085,0,8.384-1.826,10.747-3.977v-18.807c-2.688-2.472-6.771-4.082-10.747-4.082
		c-7.737,0-12.788,5.156-12.788,13.324C206.071,232.436,211.015,237.7,218.859,237.7z"/>
	<path fill="#FFFFFF" d="M317.25,233.079c0,2.795,0.752,5.158,3.438,5.158c1.936,0,3.656-0.646,5.373-1.504l0.646,14.293
		c-3.01,1.182-8.061,2.364-13.434,2.364c-6.449,0-10.854-2.474-12.789-8.062c-3.759,4.514-9.671,7.953-17.192,7.953
		c-15.367,0-25.897-12.035-25.897-28.908c0-17.086,10.53-29.229,25.897-29.229c6.984,0,12.357,2.149,15.903,5.911v-4.943h18.055
		V233.079z M299.195,214.918c-2.255-2.258-6.556-4.084-10.745-4.084c-7.845,0-12.68,5.267-12.68,13.539
		c0,8.062,4.941,13.326,12.68,13.326c3.978,0,7.951-1.611,10.745-4.084V214.918z"/>
	<path fill="#FFFFFF" d="M386.84,176.016v57.062c0,2.901,0.646,5.158,3.439,5.158c1.504,0,3.332-0.646,5.373-1.504l0.645,14.293
		c-2.795,1.182-8.168,2.364-13.434,2.364c-6.34,0-10.746-2.151-12.787-7.63c-3.547,4.513-9.135,7.63-17.303,7.63
		c-15.26,0-25.898-12.252-25.898-29.229c0-16.979,10.64-29.017,25.898-29.017c6.771,0,12.252,2.364,16.014,5.803v-24.932
		L386.84,176.016L386.84,176.016z M358.039,237.7c4.084,0,8.383-1.826,10.748-3.977v-18.807c-2.688-2.472-6.771-4.082-10.748-4.082
		c-7.735,0-12.787,5.156-12.787,13.324C345.252,232.436,350.195,237.7,358.039,237.7z"/>
	<path fill="#FFFFFF" d="M451.177,246.19c-5.804,4.729-14.293,7.629-23.857,7.629c-21.17,0-30.842-12.787-30.842-29.445
		c0-16.871,11.819-29.767,29.875-29.767c17.086,0,25.254,10.532,25.254,23.427c0,3.547-0.537,8.704-1.184,10.746h-35.999
		c1.074,6.555,5.695,10.747,13.972,10.747c6.018,0,12.572-2.794,16.119-5.374L451.177,246.19z M435.916,216.101
		c0-4.515-3.01-7.737-9.672-7.737c-6.664,0-10.639,4.083-11.498,9.026h21.171L435.916,216.101L435.916,216.101z"/>
	<path fill="#FFFFFF" d="M496.771,213.629c-5.268-2.795-11.5-4.514-16.766-4.514c-3.654,0-6.771,1.073-6.771,3.76
		c0,2.148,1.396,2.901,4.619,3.764l9.994,2.686c10.209,2.793,13.434,8.274,13.434,15.904c0,10.854-8.598,18.162-23.428,18.162
		c-9.887,0-17.838-2.688-22.137-4.836l3.33-14.078c5.159,2.688,11.821,5.266,17.518,5.266c4.191,0,6.662-0.859,6.662-3.332
		c0-1.826-2.148-2.793-5.695-3.76l-8.92-2.472c-9.133-2.688-13.646-7.738-13.646-16.228c0-11.178,9.778-18.808,25.469-18.808
		c7.414,0,16.549,2.042,20.955,4.083L496.771,213.629z"/>
</g>
<g>
	<rect x="383.885" y="123.043" fill="#24BCE5" width="36.743" height="36.744"/>
	<rect x="448.23" y="162.033" fill="#24BCE5" width="20.537" height="20.54"/>
	<rect x="440.527" y="76.026" fill="#24BCE5" width="20.537" height="20.539"/>
	<rect x="345.779" y="87.336" fill="#24BCE5" width="22.617" height="22.618"/>
	<polygon fill="#24BCE5" points="456.662,176.222 396.371,142.419 447.98,83.815 453.613,88.775 408.143,140.413 460.335,169.672 	
		"/>
	
		<rect x="347.861" y="115.228" transform="matrix(-0.7096 -0.7046 0.7046 -0.7096 565.2761 470.9404)" fill="#24BCE5" width="63.651" height="7.508"/>
</g>
<g>
	<path fill="#FFFFFF" d="M98.699,127.429v38.148H90.98v-50.469h6.754l32.062,38.297v-38.297h7.72v50.469h-6.754L98.699,127.429z"/>
	<path fill="#FFFFFF" d="M165.878,125.722c12.172,0,20.781,8.758,20.781,20.559c0,11.652-8.609,20.336-20.781,20.336
		c-12.022,0-20.707-8.684-20.707-20.336C145.171,134.479,153.854,125.722,165.878,125.722z M165.878,159.491
		c7.941,0,13.359-5.715,13.359-13.211c0-7.645-5.418-13.434-13.359-13.434c-7.793,0-13.211,5.789-13.211,13.434
		C152.667,153.776,158.085,159.491,165.878,159.491z"/>
	<path fill="#FFFFFF" d="M218.933,135.667c-3.267-1.633-8.238-3.043-12.47-3.043c-4.75,0-8.387,1.855-8.387,5.195
		c0,2.746,1.855,3.488,5.566,4.379l8.016,1.855c6.531,1.633,9.648,4.75,9.648,10.316c0,7.125-5.642,11.949-15.438,11.949
		c-6.604,0-11.801-1.855-14.77-3.34l1.559-6.68c3.191,1.707,7.867,3.562,12.914,3.562c5.121,0,8.016-1.855,8.016-4.973
		c0-2.449-2.448-3.414-6.086-4.305l-7.496-1.781c-6.309-1.559-9.647-4.527-9.647-10.391c0-7.199,6.383-12.32,16.699-12.32
		c4.973,0,11.059,1.41,13.953,2.82L218.933,135.667z"/>
	<path fill="#FFFFFF" d="M253.61,135.667c-3.266-1.633-8.238-3.043-12.469-3.043c-4.75,0-8.388,1.855-8.388,5.195
		c0,2.746,1.855,3.488,5.566,4.379l8.016,1.855c6.531,1.633,9.648,4.75,9.648,10.316c0,7.125-5.642,11.949-15.438,11.949
		c-6.604,0-11.801-1.855-14.77-3.34l1.559-6.68c3.191,1.707,7.867,3.562,12.914,3.562c5.121,0,8.017-1.855,8.017-4.973
		c0-2.449-2.449-3.414-6.086-4.305l-7.496-1.781c-6.31-1.559-9.648-4.527-9.648-10.391c0-7.199,6.383-12.32,16.699-12.32
		c4.973,0,11.059,1.41,13.953,2.82L253.61,135.667z"/>
	<path fill="#FFFFFF" d="M298.335,155.335c0,2.598,0.817,4.379,3.118,4.379c1.484,0,2.82-0.52,4.156-1.336l0.52,6.16
		c-1.78,0.965-4.676,1.781-7.497,1.781c-4.229,0-6.604-1.93-7.495-5.715c-2.746,3.117-7.348,5.641-12.84,5.641
		c-11.133,0-18.555-8.312-18.555-19.965c0-11.801,7.422-20.188,18.555-20.188c5.345,0,9.573,1.855,12.319,4.602v-3.934h7.719
		V155.335z M290.616,137.226c-2.004-2.227-6.011-4.379-10.315-4.379c-7.793,0-12.766,5.492-12.766,13.434
		c0,7.793,5.047,13.285,12.766,13.285c4.306,0,8.09-2.078,10.315-4.379V137.226z"/>
	<path fill="#FFFFFF" d="M337.26,135.667c-3.267-1.633-8.238-3.043-12.47-3.043c-4.75,0-8.387,1.855-8.387,5.195
		c0,2.746,1.855,3.488,5.566,4.379l8.016,1.855c6.531,1.633,9.648,4.75,9.648,10.316c0,7.125-5.642,11.949-15.438,11.949
		c-6.605,0-11.801-1.855-14.77-3.34l1.559-6.68c3.191,1.707,7.867,3.562,12.914,3.562c5.121,0,8.016-1.855,8.016-4.973
		c0-2.449-2.449-3.414-6.086-4.305l-7.496-1.781c-6.309-1.559-9.647-4.527-9.647-10.391c0-7.199,6.383-12.32,16.699-12.32
		c4.973,0,11.059,1.41,13.952,2.82L337.26,135.667z"/>
</g>
</svg>
