<?xml version="1.0" encoding="utf-8"?>
<!-- Generator: Adobe Illustrator 16.0.0, SVG Export Plug-In . SVG Version: 6.00 Build 0)  -->
<!DOCTYPE svg PUBLIC "-//W3C//DTD SVG 1.1//EN" "http://www.w3.org/Graphics/SVG/1.1/DTD/svg11.dtd">
<svg version="1.1" id="Layer_1" xmlns="http://www.w3.org/2000/svg" xmlns:xlink="http://www.w3.org/1999/xlink" x="0px" y="0px"
	 width="180px" height="180px" viewBox="0 0 180 180" enable-background="new 0 0 180 180" xml:space="preserve">
<rect x="0.117" fill="#000095" width="179.883" height="181.666"/>
<g>
	<g>
		<polygon fill="#FFFFFF" points="103.225,88.745 63.872,49.379 31.697,81.556 35.783,85.634 63.872,57.551 95.066,88.745 
			95.02,88.777 99.103,92.874 		"/>
		<path fill="#FFFFFF" d="M99.103,94.993l-6.239-6.248l0.036-0.043L63.872,59.682L35.783,87.76l-6.212-6.204l34.301-34.295
			l41.479,41.484L99.103,94.993z M97.181,88.827l1.922,1.921l2.003-2.003L63.872,51.512L33.816,81.556l1.967,1.959l28.089-28.092
			l33.352,33.354L97.181,88.827z"/>
	</g>
	<g>
		<polygon fill="#FFFFFF" points="62.298,121.68 31.099,90.491 31.104,90.48 27.028,86.394 22.929,90.491 62.298,129.849 
			86.223,105.909 82.144,101.834 		"/>
		<path fill="#FFFFFF" d="M62.298,131.97L20.804,90.491l6.225-6.217l6.2,6.206l-0.011,0.011l29.08,29.069l19.846-19.846l6.205,6.194
			L62.298,131.97z M25.049,90.491l37.249,37.232l21.805-21.814l-1.959-1.959l-19.846,19.851l-33.318-33.31l0.005-0.011l-1.956-1.961
			L25.049,90.491z"/>
	</g>
	<g>
		<polygon fill="#FFFFFF" points="79.088,90.152 118.441,129.506 150.621,97.339 146.524,93.246 118.441,121.337 87.257,90.152 
			87.294,90.11 83.208,86.027 		"/>
		<path fill="#FFFFFF" d="M118.441,131.632L76.96,90.152l6.248-6.248l6.196,6.19l-0.045,0.053l29.082,29.076l28.083-28.098
			l6.211,6.213L118.441,131.632z M81.207,90.152l37.234,37.239l30.055-30.053l-1.972-1.965l-28.083,28.078L85.143,90.164
			l0.037-0.044l-1.972-1.974L81.207,90.152z"/>
	</g>
	<g>
		<polygon fill="#FFFFFF" points="120.104,56.901 151.3,88.092 151.287,88.104 155.381,92.182 159.474,88.092 120.104,48.728 
			96.169,72.669 100.26,76.747 		"/>
		<path fill="#FFFFFF" d="M155.368,94.303l-6.609-6.611h0.016l-28.67-28.669L100.26,78.873l-6.21-6.204l26.055-26.05l41.496,41.473
			L155.368,94.303z M153.816,88.51l1.564,1.558l1.964-1.976l-37.24-37.238l-21.81,21.815l1.965,1.958l19.845-19.85l33.729,33.727
			L153.816,88.51z"/>
	</g>
</g>
</svg>
