<?xml version="1.0" encoding="utf-8"?>
<!-- Generator: Adobe Illustrator 19.2.0, SVG Export Plug-In . SVG Version: 6.00 Build 0)  -->
<svg version="1.1" id="Layer_1" xmlns="http://www.w3.org/2000/svg" xmlns:xlink="http://www.w3.org/1999/xlink" x="0px" y="0px"
	 viewBox="0 0 180 180" style="enable-background:new 0 0 180 180;" xml:space="preserve">
<style type="text/css">
	.st0{fill:none;stroke:#000000;stroke-width:5;stroke-miterlimit:10;}
	.st1{fill:#FFFFFF;}
	.st2{fill:#FCFAFA;}
</style>
<rect x="0.1" class="st0" width="179.9" height="181.7"/>
<g>
	<g>
		<g>
			<path d="M129,112.7c0,17.6-14.3,29-32,29H55.4V42.6h38.8c17.3,0,31.3,11.2,31.3,28.3c0,8.2-3.3,14.7-8.6,19.4
				C124.2,95,129,102.6,129,112.7z M78,63.8v17.6h16.1c5.1,0,8.6-3.7,8.6-8.8c0-5.1-3.4-8.8-8.6-8.8C94.2,63.8,78,63.8,78,63.8z
				 M106.3,111c0-5.5-3.7-9.5-9.3-9.5H78v19h19C102.6,120.5,106.3,116.5,106.3,111z"/>
		</g>
		<g>
			<path d="M127.2,111.6c0,17.6-14.3,29-32,29H53.6V41.5h38.8c17.3,0,31.3,11.2,31.3,28.3c0,8.2-3.3,14.7-8.6,19.4
				C122.4,93.9,127.2,101.5,127.2,111.6z M76.3,62.8v17.6h16.1c5.1,0,8.6-3.7,8.6-8.8c0-5.1-3.4-8.8-8.6-8.8H76.3z M104.6,109.9
				c0-5.5-3.7-9.5-9.3-9.5h-19v19h19C100.9,119.4,104.6,115.4,104.6,109.9z"/>
		</g>
		<g>
			<path d="M125.5,110.5c0,17.6-14.3,29-32,29H51.8V40.4h38.8c17.3,0,31.3,11.2,31.3,28.3c0,8.2-3.3,14.7-8.6,19.4
				C120.6,92.8,125.5,100.4,125.5,110.5z M74.5,61.7v17.6h16.1c5.1,0,8.6-3.7,8.6-8.8s-3.4-8.8-8.6-8.8H74.5z M102.8,108.8
				c0-5.5-3.7-9.5-9.3-9.5h-19v19h19C99.1,118.3,102.8,114.3,102.8,108.8z"/>
		</g>
		<g>
			<path d="M130.7,113.8c0,17.6-14.3,29-32,29H57.1V43.7h38.8c17.3,0,31.3,11.2,31.3,28.3c0,8.2-3.3,14.7-8.6,19.4
				C125.9,96.1,130.7,103.7,130.7,113.8z M79.8,64.9v17.6h16.1c5.1,0,8.6-3.7,8.6-8.8c0-5.1-3.4-8.8-8.6-8.8L79.8,64.9L79.8,64.9z
				 M108.1,112.1c0-5.5-3.7-9.5-9.3-9.5h-19v19h19C104.4,121.6,108.1,117.6,108.1,112.1z"/>
		</g>
		<g>
			<path d="M123.7,109.4c0,17.6-14.3,29-32,29H50.1V39.3h38.8c17.3,0,31.3,11.2,31.3,28.3c0,8.2-3.3,14.7-8.6,19.4
				C118.9,91.7,123.7,99.4,123.7,109.4z M72.7,60.6v17.6h16.1c5.1,0,8.6-3.7,8.6-8.8s-3.4-8.8-8.6-8.8
				C88.9,60.6,72.7,60.6,72.7,60.6z M101,107.7c0-5.5-3.7-9.5-9.3-9.5h-19v19h19C97.4,117.2,101,113.2,101,107.7z"/>
		</g>
		<g>
			<path d="M121.9,108.3c0,17.6-14.3,29-32,29H48.3V38.3h38.8c17.3,0,31.3,11.2,31.3,28.3c0,8.2-3.3,14.7-8.6,19.4
				C117.1,90.6,121.9,98.3,121.9,108.3z M71,59.5v17.6h16.1c5.1,0,8.6-3.7,8.6-8.8s-3.4-8.8-8.6-8.8C87.1,59.5,71,59.5,71,59.5z
				 M99.3,106.6c0-5.5-3.7-9.5-9.3-9.5H71v19h19C95.6,116.1,99.3,112.2,99.3,106.6z"/>
		</g>
		<g>
			<path d="M120.2,107.3c0,17.6-14.3,29-32,29H46.5V37.2h38.8c17.3,0,31.3,11.2,31.3,28.3c0,8.2-3.3,14.7-8.6,19.4
				C115.4,89.6,120.2,97.2,120.2,107.3z M69.2,58.4V76h16.1c5.1,0,8.6-3.7,8.6-8.8c0-5.1-3.4-8.8-8.6-8.8H69.2z M97.5,105.6
				c0-5.5-3.7-9.5-9.3-9.5h-19v19h19C93.8,115,97.5,111.1,97.5,105.6z"/>
		</g>
	</g>
	<g>
		<polygon points="46.5,136.3 58,144.4 58.9,140.6 47.6,133.4 46.6,132.8 		"/>
	</g>
	<g>
		<polygon class="st1" points="46.5,102.7 58.9,110.8 58.9,106.8 47.6,99.6 46.6,99 		"/>
	</g>
	<g>
		<polygon class="st1" points="46.5,96.2 58.9,103.9 58.9,90.8 47.6,83.6 46.6,83 		"/>
	</g>
	<g>
		<polygon class="st1" points="59.8,44.3 46.5,37.2 51.8,37.2 66.1,44.3 		"/>
	</g>
	<g>
		<path class="st2" d="M132.5,114.4c0,17.6-14.3,29-32,29H58.9V44.3h38.8c17.3,0,31.3,11.2,31.3,28.3c0,8.2-3.3,14.7-8.6,19.4
			C127.7,96.7,132.5,104.4,132.5,114.4z M81.5,65.6v17.6h16.1c5.1,0,8.6-3.7,8.6-8.8c0-5.1-3.4-8.8-8.6-8.8H81.5z M109.9,112.7
			c0-5.5-3.7-9.5-9.3-9.5h-19v19h19C106.2,122.2,109.9,118.2,109.9,112.7z"/>
		<path d="M100.5,144.5H57.8V43.3h39.8c18.7,0,32.3,12.4,32.3,29.4c0,7.6-2.8,14.3-8,19.3c7.4,5.2,11.5,13.1,11.5,22.5
			C133.6,131.8,119.7,144.5,100.5,144.5z M59.9,142.4h40.6c17.9,0,30.9-11.8,30.9-28c0-9.1-4.2-16.7-11.7-21.5l-1.2-0.8l1.1-0.9
			c5.4-4.7,8.3-11.1,8.3-18.6c0-15.8-12.7-27.3-30.2-27.3H59.9V142.4z M100.5,123.3h-20v-21.1h20c6.1,0,10.4,4.3,10.4,10.5
			C110.9,118.9,106.6,123.3,100.5,123.3z M82.6,121.1h17.9c5,0,8.3-3.4,8.3-8.4c0-5-3.3-8.4-8.3-8.4H82.6
			C82.6,104.3,82.6,121.1,82.6,121.1z M97.7,84.2H80.5V64.5h17.2c5.7,0,9.7,4,9.7,9.8C107.4,80,103.3,84.2,97.7,84.2z M82.6,82.1
			h15.1c4.5,0,7.6-3.2,7.6-7.7c0-4.6-3-7.7-7.6-7.7H82.6V82.1z"/>
	</g>
</g>
</svg>
