<?xml version="1.0" encoding="utf-8"?>
<!-- Generator: Adobe Illustrator 19.2.0, SVG Export Plug-In . SVG Version: 6.00 Build 0)  -->
<svg version="1.1" id="Layer_1" xmlns="http://www.w3.org/2000/svg" xmlns:xlink="http://www.w3.org/1999/xlink" x="0px" y="0px"
	 viewBox="0 0 180 180" style="enable-background:new 0 0 180 180;" xml:space="preserve">
<style type="text/css">
	.st0{fill:none;stroke:#000000;stroke-width:15;stroke-miterlimit:10;}
	.st1{fill:#FFFFFF;}
	.st2{fill:#FCFAFA;}
</style>
<rect x="1.1" class="st0" width="179.9" height="181.7"/>
<g>
	<g>
		<g>
			<path d="M134.9,112.7c0,17.6-14.3,29-32,29H61.3V42.6h38.8c17.3,0,31.3,11.2,31.3,28.3c0,8.2-3.3,14.7-8.6,19.4
				C130.1,95,134.9,102.6,134.9,112.7z M84,63.8v17.6h16.1c5.1,0,8.6-3.7,8.6-8.8c0-5.1-3.4-8.8-8.6-8.8C100.1,63.8,84,63.8,84,63.8
				z M112.3,111c0-5.5-3.7-9.5-9.3-9.5H84v19h19C108.6,120.5,112.3,116.5,112.3,111z"/>
		</g>
		<g>
			<path d="M133.2,111.6c0,17.6-14.3,29-32,29H59.5V41.5h38.8c17.3,0,31.3,11.2,31.3,28.3c0,8.2-3.3,14.7-8.6,19.4
				C128.3,93.9,133.2,101.5,133.2,111.6z M82.2,62.8v17.6h16.1c5.1,0,8.6-3.7,8.6-8.8c0-5.1-3.4-8.8-8.6-8.8H82.2z M110.5,109.9
				c0-5.5-3.7-9.5-9.3-9.5h-19v19h19C106.8,119.4,110.5,115.4,110.5,109.9z"/>
		</g>
		<g>
			<path d="M131.4,110.5c0,17.6-14.3,29-32,29H57.8V40.4h38.8c17.3,0,31.3,11.2,31.3,28.3c0,8.2-3.3,14.7-8.6,19.4
				C126.6,92.8,131.4,100.4,131.4,110.5z M80.4,61.7v17.6h16.1c5.1,0,8.6-3.7,8.6-8.8s-3.4-8.8-8.6-8.8H80.4z M108.7,108.8
				c0-5.5-3.7-9.5-9.3-9.5h-19v19h19C105.1,118.3,108.7,114.3,108.7,108.8z"/>
		</g>
		<g>
			<path d="M136.7,113.8c0,17.6-14.3,29-32,29H63.1V43.7h38.8c17.3,0,31.3,11.2,31.3,28.3c0,8.2-3.3,14.7-8.6,19.4
				C131.9,96.1,136.7,103.7,136.7,113.8z M85.7,64.9v17.6h16.1c5.1,0,8.6-3.7,8.6-8.8c0-5.1-3.4-8.8-8.6-8.8L85.7,64.9L85.7,64.9z
				 M114,112.1c0-5.5-3.7-9.5-9.3-9.5h-19v19h19C110.4,121.6,114,117.6,114,112.1z"/>
		</g>
		<g>
			<path d="M129.6,109.4c0,17.6-14.3,29-32,29H56V39.3h38.8c17.3,0,31.3,11.2,31.3,28.3c0,8.2-3.3,14.7-8.6,19.4
				C124.8,91.7,129.6,99.4,129.6,109.4z M78.7,60.6v17.6h16.1c5.1,0,8.6-3.7,8.6-8.8s-3.4-8.8-8.6-8.8
				C94.8,60.6,78.7,60.6,78.7,60.6z M107,107.7c0-5.5-3.7-9.5-9.3-9.5h-19v19h19C103.3,117.2,107,113.2,107,107.7z"/>
		</g>
		<g>
			<path d="M127.9,108.3c0,17.6-14.3,29-32,29H54.3V38.3H93c17.3,0,31.3,11.2,31.3,28.3c0,8.2-3.3,14.7-8.6,19.4
				C123.1,90.6,127.9,98.3,127.9,108.3z M76.9,59.5v17.6H93c5.1,0,8.6-3.7,8.6-8.8s-3.4-8.8-8.6-8.8C93,59.5,76.9,59.5,76.9,59.5z
				 M105.2,106.6c0-5.5-3.7-9.5-9.3-9.5h-19v19h19C101.5,116.1,105.2,112.2,105.2,106.6z"/>
		</g>
		<g>
			<path d="M126.1,107.3c0,17.6-14.3,29-32,29H52.5V37.2h38.8c17.3,0,31.3,11.2,31.3,28.3c0,8.2-3.3,14.7-8.6,19.4
				C121.3,89.6,126.1,97.2,126.1,107.3z M75.1,58.4V76h16.1c5.1,0,8.6-3.7,8.6-8.8c0-5.1-3.4-8.8-8.6-8.8H75.1z M103.5,105.6
				c0-5.5-3.7-9.5-9.3-9.5h-19v19h19C99.8,115,103.5,111.1,103.5,105.6z"/>
		</g>
	</g>
	<g>
		<polygon points="52.5,136.3 63.9,144.4 64.8,140.6 53.5,133.4 52.5,132.8 		"/>
	</g>
	<g>
		<polygon class="st1" points="52.5,102.7 64.8,110.8 64.8,106.8 53.5,99.6 52.5,99 		"/>
	</g>
	<g>
		<polygon class="st1" points="52.5,96.2 64.8,103.9 64.8,90.8 53.5,83.6 52.5,83 		"/>
	</g>
	<g>
		<polygon class="st1" points="65.8,44.3 52.5,37.2 57.8,37.2 72,44.3 		"/>
	</g>
	<g>
		<path class="st2" d="M138.4,114.4c0,17.6-14.3,29-32,29H64.8V44.3h38.8c17.3,0,31.3,11.2,31.3,28.3c0,8.2-3.3,14.7-8.6,19.4
			C133.6,96.7,138.4,104.4,138.4,114.4z M87.5,65.6v17.6h16.1c5.1,0,8.6-3.7,8.6-8.8c0-5.1-3.4-8.8-8.6-8.8H87.5z M115.8,112.7
			c0-5.5-3.7-9.5-9.3-9.5h-19v19h19C112.1,122.2,115.8,118.2,115.8,112.7z"/>
		<path d="M106.4,144.5H63.8V43.3h39.8c18.7,0,32.3,12.4,32.3,29.4c0,7.6-2.8,14.3-8,19.3c7.4,5.2,11.5,13.1,11.5,22.5
			C139.5,131.8,125.6,144.5,106.4,144.5z M65.9,142.4h40.6c17.9,0,30.9-11.8,30.9-28c0-9.1-4.2-16.7-11.7-21.5l-1.2-0.8l1.1-0.9
			c5.4-4.7,8.3-11.1,8.3-18.6c0-15.8-12.7-27.3-30.2-27.3H65.9V142.4z M106.4,123.3h-20v-21.1h20c6.1,0,10.4,4.3,10.4,10.5
			C116.8,118.9,112.6,123.3,106.4,123.3z M88.5,121.1h17.9c5,0,8.3-3.4,8.3-8.4c0-5-3.3-8.4-8.3-8.4H88.5
			C88.5,104.3,88.5,121.1,88.5,121.1z M103.6,84.2H86.4V64.5h17.2c5.7,0,9.7,4,9.7,9.8C113.3,80,109.2,84.2,103.6,84.2z M88.5,82.1
			h15.1c4.5,0,7.6-3.2,7.6-7.7c0-4.6-3-7.7-7.6-7.7H88.5V82.1z"/>
	</g>
</g>
</svg>
