<?xml version="1.0" encoding="UTF-8" standalone="no"?>
<!-- Generator: Adobe Illustrator 19.2.0, SVG Export Plug-In . SVG Version: 6.00 Build 0)  -->

<svg
   xmlns:dc="http://purl.org/dc/elements/1.1/"
   xmlns:cc="http://creativecommons.org/ns#"
   xmlns:rdf="http://www.w3.org/1999/02/22-rdf-syntax-ns#"
   xmlns:svg="http://www.w3.org/2000/svg"
   xmlns="http://www.w3.org/2000/svg"
   xmlns:sodipodi="http://sodipodi.sourceforge.net/DTD/sodipodi-0.dtd"
   xmlns:inkscape="http://www.inkscape.org/namespaces/inkscape"
   version="1.1"
   id="Layer_1"
   x="0px"
   y="0px"
   viewBox="0 0 180 180"
   style="enable-background:new 0 0 180 180;"
   xml:space="preserve"
   inkscape:version="0.91 r13725"
   sodipodi:docname="logo-icon-no-border.svg"><metadata
     id="metadata65"><rdf:RDF><cc:Work
         rdf:about=""><dc:format>image/svg+xml</dc:format><dc:type
           rdf:resource="http://purl.org/dc/dcmitype/StillImage" /></cc:Work></rdf:RDF></metadata><defs
     id="defs63" /><sodipodi:namedview
     pagecolor="#ffffff"
     bordercolor="#666666"
     borderopacity="1"
     objecttolerance="10"
     gridtolerance="10"
     guidetolerance="10"
     inkscape:pageopacity="0"
     inkscape:pageshadow="2"
     inkscape:window-width="2119"
     inkscape:window-height="1260"
     id="namedview61"
     showgrid="false"
     inkscape:zoom="1.3111111"
     inkscape:cx="89.999999"
     inkscape:cy="89.999999"
     inkscape:window-x="132"
     inkscape:window-y="60"
     inkscape:window-maximized="0"
     inkscape:current-layer="Layer_1" /><style
     type="text/css"
     id="style3">
	.st0{fill:none;stroke:#000000;stroke-width:5;stroke-miterlimit:10;}
	.st1{fill:#FFFFFF;}
	.st2{fill:#FCFAFA;}
</style><g
     id="g7"
     transform="matrix(1.6670396,0,0,1.6670396,-60.000394,-60.600551)"><g
       id="g9"><g
         id="g11"><path
           d="m 128.9,112.7 c 0,17.6 -14.3,29 -32,29 l -41.6,0 0,-99.1 38.8,0 c 17.3,0 31.3,11.2 31.3,28.3 0,8.2 -3.3,14.7 -8.6,19.4 7.3,4.7 12.1,12.3 12.1,22.4 z M 78,63.8 l 0,17.6 16.1,0 c 5.1,0 8.6,-3.7 8.6,-8.8 0,-5.1 -3.4,-8.8 -8.6,-8.8 0,0 -16.1,0 -16.1,0 z m 28.3,47.2 c 0,-5.5 -3.7,-9.5 -9.3,-9.5 l -19,0 0,19 19,0 c 5.6,0 9.3,-4 9.3,-9.5 z"
           id="path13"
           inkscape:connector-curvature="0" /></g><g
         id="g15"><path
           d="m 127.2,111.6 c 0,17.6 -14.3,29 -32,29 l -41.7,0 0,-99.1 38.8,0 c 17.3,0 31.3,11.2 31.3,28.3 0,8.2 -3.3,14.7 -8.6,19.4 7.3,4.7 12.2,12.3 12.2,22.4 z m -51,-48.8 0,17.6 16.1,0 c 5.1,0 8.6,-3.7 8.6,-8.8 0,-5.1 -3.4,-8.8 -8.6,-8.8 l -16.1,0 z m 28.3,47.1 c 0,-5.5 -3.7,-9.5 -9.3,-9.5 l -19,0 0,19 19,0 c 5.6,0 9.3,-4 9.3,-9.5 z"
           id="path17"
           inkscape:connector-curvature="0" /></g><g
         id="g19"><path
           d="m 125.4,110.5 c 0,17.6 -14.3,29 -32,29 l -41.6,0 0,-99.1 38.8,0 c 17.3,0 31.3,11.2 31.3,28.3 0,8.2 -3.3,14.7 -8.6,19.4 7.3,4.7 12.1,12.3 12.1,22.4 z m -51,-48.8 0,17.6 16.1,0 c 5.1,0 8.6,-3.7 8.6,-8.8 0,-5.1 -3.4,-8.8 -8.6,-8.8 l -16.1,0 z m 28.3,47.1 c 0,-5.5 -3.7,-9.5 -9.3,-9.5 l -19,0 0,19 19,0 c 5.7,0 9.3,-4 9.3,-9.5 z"
           id="path21"
           inkscape:connector-curvature="0" /></g><g
         id="g23"><path
           d="m 130.7,113.8 c 0,17.6 -14.3,29 -32,29 l -41.6,0 0,-99.1 38.8,0 c 17.3,0 31.3,11.2 31.3,28.3 0,8.2 -3.3,14.7 -8.6,19.4 7.3,4.7 12.1,12.3 12.1,22.4 z m -51,-48.9 0,17.6 16.1,0 c 5.1,0 8.6,-3.7 8.6,-8.8 0,-5.1 -3.4,-8.8 -8.6,-8.8 l -16.1,0 0,0 z m 28.3,47.2 c 0,-5.5 -3.7,-9.5 -9.3,-9.5 l -19,0 0,19 19,0 c 5.7,0 9.3,-4 9.3,-9.5 z"
           id="path25"
           inkscape:connector-curvature="0" /></g><g
         id="g27"><path
           d="m 123.6,109.4 c 0,17.6 -14.3,29 -32,29 l -41.6,0 0,-99.1 38.8,0 c 17.3,0 31.3,11.2 31.3,28.3 0,8.2 -3.3,14.7 -8.6,19.4 7.3,4.7 12.1,12.4 12.1,22.4 z m -50.9,-48.8 0,17.6 16.1,0 c 5.1,0 8.6,-3.7 8.6,-8.8 0,-5.1 -3.4,-8.8 -8.6,-8.8 0,0 -16.1,0 -16.1,0 z m 28.3,47.1 c 0,-5.5 -3.7,-9.5 -9.3,-9.5 l -19,0 0,19 19,0 c 5.6,0 9.3,-4 9.3,-9.5 z"
           id="path29"
           inkscape:connector-curvature="0" /></g><g
         id="g31"><path
           d="m 121.9,108.3 c 0,17.6 -14.3,29 -32,29 l -41.6,0 0,-99 38.7,0 c 17.3,0 31.3,11.2 31.3,28.3 0,8.2 -3.3,14.7 -8.6,19.4 7.4,4.6 12.2,12.3 12.2,22.3 z m -51,-48.8 0,17.6 16.1,0 c 5.1,0 8.6,-3.7 8.6,-8.8 0,-5.1 -3.4,-8.8 -8.6,-8.8 0,0 -16.1,0 -16.1,0 z m 28.3,47.1 c 0,-5.5 -3.7,-9.5 -9.3,-9.5 l -19,0 0,19 19,0 c 5.6,0 9.3,-3.9 9.3,-9.5 z"
           id="path33"
           inkscape:connector-curvature="0" /></g><g
         id="g35"><path
           d="m 120.1,107.3 c 0,17.6 -14.3,29 -32,29 l -41.6,0 0,-99.1 38.8,0 c 17.3,0 31.3,11.2 31.3,28.3 0,8.2 -3.3,14.7 -8.6,19.4 7.3,4.7 12.1,12.3 12.1,22.4 z m -51,-48.9 0,17.6 16.1,0 c 5.1,0 8.6,-3.7 8.6,-8.8 0,-5.1 -3.4,-8.8 -8.6,-8.8 l -16.1,0 z m 28.4,47.2 c 0,-5.5 -3.7,-9.5 -9.3,-9.5 l -19,0 0,19 19,0 c 5.6,-0.1 9.3,-4 9.3,-9.5 z"
           id="path37"
           inkscape:connector-curvature="0" /></g></g><g
       id="g39"><polygon
         points="57.9,144.4 58.8,140.6 47.5,133.4 46.5,132.8 46.5,136.3 "
         id="polygon41" /></g><g
       id="g43"><polygon
         class="st1"
         points="58.8,110.8 58.8,106.8 47.5,99.6 46.5,99 46.5,102.7 "
         id="polygon45"
         style="fill:#ffffff" /></g><g
       id="g47"><polygon
         class="st1"
         points="58.8,103.9 58.8,90.8 47.5,83.6 46.5,83 46.5,96.2 "
         id="polygon49"
         style="fill:#ffffff" /></g><g
       id="g51"><polygon
         class="st1"
         points="46.5,37.2 51.8,37.2 66,44.3 59.8,44.3 "
         id="polygon53"
         style="fill:#ffffff" /></g><g
       id="g55"><path
         class="st2"
         d="m 132.4,114.4 c 0,17.6 -14.3,29 -32,29 l -41.6,0 0,-99.1 38.8,0 c 17.3,0 31.3,11.2 31.3,28.3 0,8.2 -3.3,14.7 -8.6,19.4 7.3,4.7 12.1,12.4 12.1,22.4 z m -50.9,-48.8 0,17.6 16.1,0 c 5.1,0 8.6,-3.7 8.6,-8.8 0,-5.1 -3.4,-8.8 -8.6,-8.8 l -16.1,0 z m 28.3,47.1 c 0,-5.5 -3.7,-9.5 -9.3,-9.5 l -19,0 0,19 19,0 c 5.6,0 9.3,-4 9.3,-9.5 z"
         id="path57"
         inkscape:connector-curvature="0"
         style="fill:#fcfafa" /><path
         d="m 100.4,144.5 -42.6,0 0,-101.2 39.8,0 c 18.7,0 32.3,12.4 32.3,29.4 0,7.6 -2.8,14.3 -8,19.3 7.4,5.2 11.5,13.1 11.5,22.5 0.1,17.3 -13.8,30 -33,30 z m -40.5,-2.1 40.6,0 c 17.9,0 30.9,-11.8 30.9,-28 0,-9.1 -4.2,-16.7 -11.7,-21.5 l -1.2,-0.8 1.1,-0.9 c 5.4,-4.7 8.3,-11.1 8.3,-18.6 0,-15.8 -12.7,-27.3 -30.2,-27.3 l -37.8,0 0,97.1 z m 40.5,-19.1 -20,0 0,-21.1 20,0 c 6.1,0 10.4,4.3 10.4,10.5 0,6.2 -4.2,10.6 -10.4,10.6 z m -17.9,-2.2 17.9,0 c 5,0 8.3,-3.4 8.3,-8.4 0,-5 -3.3,-8.4 -8.3,-8.4 l -17.9,0 c 0,0 0,16.8 0,16.8 z m 15.1,-36.9 -17.2,0 0,-19.7 17.2,0 c 5.7,0 9.7,4 9.7,9.8 0,5.7 -4.1,9.9 -9.7,9.9 z m -15.1,-2.1 15.1,0 c 4.5,0 7.6,-3.2 7.6,-7.7 0,-4.6 -3,-7.7 -7.6,-7.7 l -15.1,0 0,15.4 z"
         id="path59"
         inkscape:connector-curvature="0" /></g></g></svg>