<?xml version="1.0" encoding="utf-8"?>
<!-- Generator: Adobe Illustrator 18.0.0, SVG Export Plug-In . SVG Version: 6.00 Build 0)  -->
<!DOCTYPE svg PUBLIC "-//W3C//DTD SVG 1.1//EN" "http://www.w3.org/Graphics/SVG/1.1/DTD/svg11.dtd">
<svg version="1.1" id="Layer_1" xmlns="http://www.w3.org/2000/svg" xmlns:xlink="http://www.w3.org/1999/xlink" x="0px" y="0px"
	 viewBox="0 0 180 180" enable-background="new 0 0 180 180" xml:space="preserve">
<g>
	<g>
		<polygon fill="#FFFFFF" points="103.2,88.7 63.9,49.4 31.7,81.6 35.8,85.6 63.9,57.6 95.1,88.7 95,88.8 99.1,92.9 		"/>
		<path fill="#FFFFFF" d="M99.1,95l-6.2-6.2l0,0l-29-29L35.8,87.8l-6.2-6.2l34.3-34.3l41.5,41.5L99.1,95z M97.2,88.8l1.9,1.9l2-2
			L63.9,51.5l-30.1,30l2,2l28.1-28.1L97.2,88.8L97.2,88.8z"/>
	</g>
	<g>
		<polygon fill="#FFFFFF" points="62.3,121.7 31.1,90.5 31.1,90.5 27,86.4 22.9,90.5 62.3,129.8 86.2,105.9 82.1,101.8 		"/>
		<path fill="#FFFFFF" d="M62.3,132L20.8,90.5l6.2-6.2l6.2,6.2l0,0l29.1,29.1l19.8-19.8l6.2,6.2L62.3,132z M25,90.5l37.2,37.2
			l21.8-21.8l-2-2l-19.8,19.9L29,90.5l0,0l-2-2L25,90.5z"/>
	</g>
	<g>
		<polygon fill="#FFFFFF" points="79.1,90.2 118.4,129.5 150.6,97.3 146.5,93.2 118.4,121.3 87.3,90.2 87.3,90.1 83.2,86 		"/>
		<path fill="#FFFFFF" d="M118.4,131.6L77,90.2l6.2-6.2l6.2,6.2l0,0.1l29.1,29.1l28.1-28.1l6.2,6.2L118.4,131.6z M81.2,90.2
			l37.2,37.2l30.1-30.1l-2-2l-28.1,28.1L85.1,90.2l0,0l-2-2L81.2,90.2z"/>
	</g>
	<g>
		<polygon fill="#FFFFFF" points="120.1,56.9 151.3,88.1 151.3,88.1 155.4,92.2 159.5,88.1 120.1,48.7 96.2,72.7 100.3,76.7 		"/>
		<path fill="#FFFFFF" d="M155.4,94.3l-6.6-6.6h0L120.1,59l-19.8,19.8l-6.2-6.2l26.1-26l41.5,41.5L155.4,94.3z M153.8,88.5l1.6,1.6
			l2-2l-37.2-37.2L98.3,72.7l2,2l19.8-19.8L153.8,88.5L153.8,88.5z"/>
	</g>
</g>
</svg>
