<?xml version="1.0" encoding="utf-8"?>
<!-- Generator: Adobe Illustrator 18.0.0, SVG Export Plug-In . SVG Version: 6.00 Build 0)  -->
<!DOCTYPE svg PUBLIC "-//W3C//DTD SVG 1.1//EN" "http://www.w3.org/Graphics/SVG/1.1/DTD/svg11.dtd">
<svg version="1.1" id="Layer_1" xmlns="http://www.w3.org/2000/svg" xmlns:xlink="http://www.w3.org/1999/xlink" x="0px" y="0px"
	 viewBox="38 38 104.6 104.6" enable-background="new 38 38 104.6 104.6" xml:space="preserve">
<g>
	<path fill="#FFFFFF" d="M62.9,48.6v27.8h-5.4V38h7.6L71.2,61V38h5.4v38.3h-6.2L62.9,48.6z"/>
	<path fill="#FFFFFF" d="M81.1,47.5c0-6,3.2-9.4,9-9.4c5.8,0,9,3.4,9,9.4V67c0,6-3.2,9.4-9,9.4c-5.8,0-9-3.4-9-9.4V47.5z M87,67.4
		c0,2.7,1.2,3.7,3.1,3.7c1.9,0,3.1-1,3.1-3.7V47.1c0-2.7-1.2-3.7-3.1-3.7c-1.9,0-3.1,1-3.1,3.7V67.4z"/>
	<path fill="#FFFFFF" d="M114,38.2c6.8,0,10.4,3.4,10.4,9.4v1.2h-6.7v-1.5c0-2.7-1.3-3.7-3.5-3.7c-2.2,0-3.5,1-3.5,3.7
		c0,7.7,13.8,9.1,13.8,19.8c0,6-3.6,9.4-10.5,9.4c-6.9,0-10.5-3.4-10.5-9.4v-2.3h6.7v2.7c0,2.7,1.4,3.6,3.6,3.6c2.2,0,3.7-1,3.7-3.6
		c0-7.7-13.8-9.1-13.8-19.8C103.6,41.6,107.1,38.2,114,38.2z"/>
	<rect x="57.3" y="82" fill="#FFFFFF" width="66.9" height="3.8"/>
	<g>
		<path fill="#FFFFFF" d="M101,133h-6.1l-1-6.9h-7.4l-1,6.9h-5.5L86,94.7h8.8L101,133z M87.2,120.9H93l-2.9-19.4L87.2,120.9z"/>
	</g>
	<path fill="#FFFFFF" d="M67.1,94.8c6.9,0,10.4,3.4,10.4,9.4v1.2h-6.7v-1.5c0-2.7-1.3-3.7-3.5-3.7c-2.2,0-3.5,1-3.5,3.7
		c0,7.7,13.8,9.1,13.8,19.8c0,6-3.6,9.4-10.5,9.4c-6.9,0-10.5-3.4-10.5-9.4v-2.3h6.7v2.7c0,2.7,1.4,3.6,3.6,3.6c2.2,0,3.7-1,3.7-3.6
		c0-7.7-13.8-9.1-13.8-19.8C56.7,98.2,60.3,94.8,67.1,94.8z"/>
	<path fill="#FFFFFF" d="M114,94.8c6.9,0,10.4,3.4,10.4,9.4v1.2h-6.7v-1.5c0-2.7-1.3-3.7-3.5-3.7s-3.5,1-3.5,3.7
		c0,7.7,13.8,9.1,13.8,19.8c0,6-3.6,9.4-10.5,9.4c-6.9,0-10.5-3.4-10.5-9.4v-2.3h6.7v2.7c0,2.7,1.4,3.6,3.6,3.6c2.2,0,3.6-1,3.6-3.6
		c0-7.7-13.8-9.1-13.8-19.8C103.7,98.2,107.2,94.8,114,94.8z"/>
	<rect x="57.6" y="138.7" fill="#FFFFFF" width="66.9" height="3.8"/>
</g>
</svg>
