<?xml version="1.0" encoding="utf-8"?>
<!-- Generator: Adobe Illustrator 19.2.0, SVG Export Plug-In . SVG Version: 6.00 Build 0)  -->
<svg version="1.1" id="Layer_1" xmlns="http://www.w3.org/2000/svg" xmlns:xlink="http://www.w3.org/1999/xlink" x="0px" y="0px"
	 viewBox="0 0 104.6 104.6" style="enable-background:new 0 0 104.6 104.6;" xml:space="preserve">
<style type="text/css">
	.st0{fill:#FFFFFF;}
	.st1{fill:none;stroke:#000000;stroke-width:5;stroke-miterlimit:10;}
	.st2{fill:#FCFAFA;}
</style>
<g>
	<path class="st0" d="M173.9,1.7v27.8h-5.4V-8.9h7.6l6.1,23v-23h5.4v38.3h-6.2L173.9,1.7z"/>
	<path class="st0" d="M192.1,0.6c0-6,3.2-9.4,9-9.4c5.8,0,9,3.4,9,9.4v19.5c0,6-3.2,9.4-9,9.4c-5.8,0-9-3.4-9-9.4V0.6z M198,20.5
		c0,2.7,1.2,3.7,3.1,3.7c1.9,0,3.1-1,3.1-3.7V0.2c0-2.7-1.2-3.7-3.1-3.7c-1.9,0-3.1,1-3.1,3.7V20.5z"/>
	<path class="st0" d="M225-8.7c6.8,0,10.4,3.4,10.4,9.4v1.2h-6.7V0.4c0-2.7-1.3-3.7-3.5-3.7c-2.2,0-3.5,1-3.5,3.7
		c0,7.7,13.8,9.1,13.8,19.8c0,6-3.6,9.4-10.5,9.4c-6.9,0-10.5-3.4-10.5-9.4v-2.3h6.7v2.7c0,2.7,1.4,3.6,3.6,3.6s3.7-1,3.7-3.6
		c0-7.7-13.8-9.1-13.8-19.8C214.6-5.3,218.1-8.7,225-8.7z"/>
	<rect x="168.3" y="35.1" class="st0" width="66.9" height="3.8"/>
	<g>
		<path class="st0" d="M212,86.1h-6.1l-1-6.9h-7.4l-1,6.9H191l6-38.3h8.8L212,86.1z M198.2,74.1h5.8l-2.9-19.4L198.2,74.1z"/>
	</g>
	<path class="st0" d="M178.1,48c6.9,0,10.4,3.4,10.4,9.4v1.2h-6.7V57c0-2.7-1.3-3.7-3.5-3.7s-3.5,1-3.5,3.7
		c0,7.7,13.8,9.1,13.8,19.8c0,6-3.6,9.4-10.5,9.4s-10.5-3.4-10.5-9.4v-2.3h6.7v2.7c0,2.7,1.4,3.6,3.6,3.6s3.7-1,3.7-3.6
		c0-7.7-13.8-9.1-13.8-19.8C167.7,51.3,171.3,48,178.1,48z"/>
	<path class="st0" d="M225,48c6.9,0,10.4,3.4,10.4,9.4v1.2h-6.7V57c0-2.7-1.3-3.7-3.5-3.7c-2.2,0-3.5,1-3.5,3.7
		c0,7.7,13.8,9.1,13.8,19.8c0,6-3.6,9.4-10.5,9.4c-6.9,0-10.5-3.4-10.5-9.4v-2.3h6.7v2.7c0,2.7,1.4,3.6,3.6,3.6s3.6-1,3.6-3.6
		c0-7.7-13.8-9.1-13.8-19.8C214.7,51.3,218.2,48,225,48z"/>
	<rect x="168.6" y="91.8" class="st0" width="66.9" height="3.8"/>
</g>
<rect x="1.1" y="0.7" class="st1" width="103.5" height="104.5"/>
<g>
	<g>
		<g>
			<path d="M75.2,65.6c0,10.1-8.2,16.7-18.4,16.7h-24v-57h22.3c9.9,0,18,6.4,18,16.3c0,4.7-1.9,8.5-5,11.2
				C72.5,55.4,75.2,59.8,75.2,65.6z M45.9,37.5v10.1h9.3c2.9,0,5-2.1,5-5.1c0-2.9-2-5-5-5C55.2,37.5,45.9,37.5,45.9,37.5z
				 M62.2,64.6c0-3.2-2.1-5.5-5.4-5.5H45.9V70h10.9C60.1,70,62.2,67.8,62.2,64.6z"/>
		</g>
		<g>
			<path d="M74.2,64.9c0,10.1-8.2,16.7-18.4,16.7h-24v-57h22.3c9.9,0,18,6.4,18,16.3c0,4.7-1.9,8.5-5,11.2
				C71.5,54.8,74.2,59.1,74.2,64.9z M44.9,36.8v10.1h9.3c2.9,0,5-2.1,5-5.1c0-2.9-2-5.1-5-5.1H44.9z M61.2,64c0-3.2-2.1-5.5-5.4-5.5
				H44.9v10.9h10.9C59.1,69.4,61.2,67.1,61.2,64z"/>
		</g>
		<g>
			<path d="M73.2,64.3C73.2,74.4,65,81,54.8,81h-24V24h22.3c9.9,0,18,6.4,18,16.3c0,4.7-1.9,8.5-5,11.2
				C70.4,54.1,73.2,58.5,73.2,64.3z M43.9,36.2v10.1h9.3c2.9,0,5-2.1,5-5.1c0-2.9-2-5.1-5-5.1H43.9z M60.2,63.3
				c0-3.2-2.1-5.5-5.4-5.5H43.9v10.9h10.9C58.1,68.8,60.2,66.5,60.2,63.3z"/>
		</g>
		<g>
			<path d="M76.3,66.2c0,10.1-8.2,16.7-18.4,16.7h-24v-57h22.3c9.9,0,18,6.4,18,16.3c0,4.7-1.9,8.5-5,11.2
				C73.5,56,76.3,60.4,76.3,66.2z M46.9,38.1v10.1h9.3c2.9,0,5-2.1,5-5c0-2.9-2-5.1-5-5.1L46.9,38.1L46.9,38.1z M63.2,65.2
				c0-3.2-2.1-5.5-5.4-5.5H46.9v10.9h10.9C61.1,70.7,63.2,68.4,63.2,65.2z"/>
		</g>
		<g>
			<path d="M72.2,63.7c0,10.1-8.2,16.7-18.4,16.7h-24v-57h22.3c9.9,0,18,6.4,18,16.3c0,4.7-1.9,8.5-5,11.2
				C69.4,53.5,72.2,57.9,72.2,63.7z M42.9,35.6v10.1h9.3c2.9,0,5-2.1,5-5.1c0-2.9-2-5-5-5C52.2,35.6,42.9,35.6,42.9,35.6z
				 M59.2,62.7c0-3.2-2.1-5.5-5.4-5.5H42.9v10.9h10.9C57.1,68.2,59.2,65.9,59.2,62.7z"/>
		</g>
		<g>
			<path d="M71.2,63.1c0,10.1-8.2,16.7-18.4,16.7H28.8v-57h22.3c9.9,0,18,6.4,18,16.3c0,4.7-1.9,8.5-5,11.2
				C68.4,52.9,71.2,57.3,71.2,63.1z M41.9,35v10.1h9.3c2.9,0,5-2.1,5-5.1c0-2.9-2-5.1-5-5.1C51.2,35,41.9,35,41.9,35z M58.2,62.1
				c0-3.2-2.1-5.5-5.4-5.5H41.9v10.9h10.9C56,67.5,58.2,65.3,58.2,62.1z"/>
		</g>
		<g>
			<path d="M70.2,62.4c0,10.1-8.2,16.7-18.4,16.7h-24v-57h22.3c9.9,0,18,6.4,18,16.3c0,4.7-1.9,8.5-5,11.2
				C67.4,52.3,70.2,56.7,70.2,62.4z M40.9,34.3v10.1h9.3c2.9,0,5-2.1,5-5.1c0-2.9-2-5-5-5H40.9z M57.1,61.5c0-3.2-2.1-5.5-5.4-5.5
				H40.8v10.9h10.9C55,66.9,57.1,64.6,57.1,61.5z"/>
		</g>
	</g>
	<g>
		<polygon points="27.8,79.1 34.4,83.8 34.9,81.6 28.4,77.5 27.8,77.2 		"/>
	</g>
	<g>
		<polygon class="st0" points="27.8,59.8 34.9,64.5 34.9,62.2 28.4,58 27.8,57.7 		"/>
	</g>
	<g>
		<polygon class="st0" points="27.8,56.1 34.9,60.5 34.9,53 28.4,48.8 27.8,48.5 		"/>
	</g>
	<g>
		<polygon class="st0" points="35.4,26.2 27.8,22.1 30.9,22.1 39,26.2 		"/>
	</g>
	<g>
		<path class="st2" d="M77.3,66.6c0,10.1-8.2,16.7-18.4,16.7H34.9v-57h22.3c9.9,0,18,6.4,18,16.3c0,4.7-1.9,8.5-5,11.2
			C74.5,56.4,77.3,60.8,77.3,66.6z M47.9,38.4v10.1h9.3c2.9,0,5-2.1,5-5c0-2.9-2-5.1-5-5.1H47.9z M64.2,65.6c0-3.2-2.1-5.5-5.4-5.5
			H47.9V71h10.9C62.1,71,64.2,68.7,64.2,65.6z"/>
		<path d="M58.9,83.9H34.3V25.6h22.9c10.8,0,18.6,7.1,18.6,16.9c0,4.4-1.6,8.2-4.6,11.1c4.3,3,6.6,7.6,6.6,12.9
			C77.9,76.6,69.9,83.9,58.9,83.9z M35.5,82.6h23.3c10.3,0,17.8-6.8,17.8-16.1c0-5.2-2.4-9.6-6.7-12.4l-0.7-0.4l0.6-0.5
			c3.1-2.7,4.8-6.4,4.8-10.7c0-9.1-7.3-15.7-17.4-15.7H35.5V82.6z M58.9,71.6H47.3V59.5h11.5c3.5,0,6,2.5,6,6.1
			C64.8,69.1,62.4,71.6,58.9,71.6z M48.6,70.4h10.3c2.9,0,4.8-1.9,4.8-4.9c0-2.9-1.9-4.9-4.8-4.9H48.6
			C48.6,60.7,48.6,70.4,48.6,70.4z M57.2,49.2h-9.9V37.8h9.9c3.3,0,5.6,2.3,5.6,5.7C62.8,46.8,60.5,49.2,57.2,49.2z M48.6,47.9h8.7
			c2.6,0,4.4-1.8,4.4-4.4c0-2.7-1.8-4.4-4.4-4.4h-8.7V47.9z"/>
	</g>
</g>
</svg>
