<?xml version="1.0" encoding="utf-8"?>
<!-- Generator: Adobe Illustrator 18.0.0, SVG Export Plug-In . SVG Version: 6.00 Build 0)  -->
<!DOCTYPE svg PUBLIC "-//W3C//DTD SVG 1.1 Tiny//EN" "http://www.w3.org/Graphics/SVG/1.1/DTD/svg11-tiny.dtd">
<svg version="1.1" baseProfile="tiny" id="Layer_2" xmlns="http://www.w3.org/2000/svg" xmlns:xlink="http://www.w3.org/1999/xlink"
	 x="0px" y="0px" viewBox="0 0 16 16" xml:space="preserve">
<path fill-rule="evenodd" fill="#FFFFFF" d="M0,16V0h16v16H0z M13.4,8.8l-0.5-0.5l-2.5,2.5L7.3,7.6L6.7,8.1l3.7,3.7L13.4,8.8z
	 M1.8,8.2l3.7,3.7l2.3-2.3L7.2,9l-1.7,1.7L2.3,7.6L1.8,8.2z M2.5,7.3l0.5,0.5l2.5-2.5l3.2,3.1L9.2,8L5.6,4.3L2.5,7.3z M10.5,4.3
	L8.2,6.5l0.5,0.6l1.8-1.7l3.1,3.1l0.5-0.5L10.5,4.3z"/>
</svg>
