<?xml version="1.0" encoding="utf-8"?>
<!-- Generator: Adobe Illustrator 18.0.0, SVG Export Plug-In . SVG Version: 6.00 Build 0)  -->
<!DOCTYPE svg PUBLIC "-//W3C//DTD SVG 1.1//EN" "http://www.w3.org/Graphics/SVG/1.1/DTD/svg11.dtd">
<svg version="1.1" id="Layer_1" xmlns="http://www.w3.org/2000/svg" xmlns:xlink="http://www.w3.org/1999/xlink" x="0px" y="0px"
	 viewBox="0 0 180 180" enable-background="new 0 0 180 180" xml:space="preserve">
<path fill="#FFFFFF" d="M0.1,0v181.7H180V0H0.1z M63.9,47.3l41.5,41.5L99.1,95l-6.2-6.2l0,0l-29-29L35.8,87.8l-6.2-6.2L63.9,47.3z
	 M62.3,132L20.8,90.5l6.2-6.2l6.2,6.2l0,0l29.1,29.1l19.8-19.8l6.2,6.2L62.3,132z M118.4,131.6L77,90.2l6.2-6.2l6.2,6.2l0,0.1
	l29.1,29.1l28.1-28.1l6.2,6.2L118.4,131.6z M155.4,94.3l-6.6-6.6h0L120.1,59l-19.8,19.8L94,72.7l26.1-26l41.5,41.5L155.4,94.3z"/>
</svg>
